<svg xmlns="http://www.w3.org/2000/svg" viewBox="0 0 255 158"><defs><style>.cls-1{isolation:isolate;}.cls-2{mix-blend-mode:multiply;}.cls-3{fill:#29abe2;}.cls-4{fill:#2b68e0;}</style></defs><title>inicialesMesa de trabajo 1</title><g class="cls-1"><g id="Capa_1" data-name="Capa 1"><g class="cls-2"><path d="M47.39,10C69,10,80.71,21.74,80.71,43.5V54.1c0,21.77-11.74,33.5-33.31,33.5H38.5V142.5H18.43V10ZM38.5,69.06h8.14c9.65,0,14-5.11,14-16.28V44.83c0-11.17-4.35-16.28-14-16.28H38.5Z"/><path d="M129.75,145.4H113.16L100.28,109H100L87.84,145.4H71.56L91.4,91.65,72.74,41.75H89.32l11.55,33h.3l11.11-33h16.29L109.91,92.24Z"/><path d="M175,145.4,148.71,57.57h-.38V145.4H129.41V12.9h22.33L175.4,91.83h.38V12.9h18.93V145.4Z"/><path d="M218.42,102h-6.77v44H197V42h21.14c15.75,0,24.32,9.21,24.32,26.3v7.43c0,11-3.59,18.72-10.36,22.88L245.5,146H230Zm-6.16-15.21h6c7.13,0,10.35-4,10.35-12.88V68.54c0-8.84-3.22-12.88-10.35-12.88h-6Z"/></g><path class="cls-3" d="M44.39,10C66,10,77.71,21.74,77.71,43.5V54.1c0,21.77-11.74,33.5-33.31,33.5H35.5V142.5H15.43V10ZM35.5,69.06h8.14c9.65,0,14-5.11,14-16.28V44.83c0-11.17-4.35-16.28-14-16.28H35.5Z"/><path class="cls-3" d="M126.75,145.4H110.16L97.28,109H97L84.84,145.4H68.56L88.4,91.65,69.74,41.75H86.32l11.55,33h.3l11.11-33h16.29L106.91,92.24Z"/><path class="cls-4" d="M172,145.4,145.71,57.57h-.38V145.4H126.41V12.9h22.33L172.4,91.83h.38V12.9h18.93V145.4Z"/><path class="cls-4" d="M215.42,102h-6.77v44H194V42h21.14c15.75,0,24.32,9.21,24.32,26.3v7.43c0,11-3.59,18.72-10.36,22.88L242.5,146H227Zm-6.16-15.21h6c7.13,0,10.35-4,10.35-12.88V68.54c0-8.84-3.22-12.88-10.35-12.88h-6Z"/></g></g></svg>